<svg id="Layer_1" enable-background="new 0 0 512.772 512.772" height="512" viewBox="0 0 512.772 512.772" width="512" xmlns="http://www.w3.org/2000/svg" xmlns:xlink="http://www.w3.org/1999/xlink"><linearGradient id="SVGID_1_" gradientUnits="userSpaceOnUse" x1=".386" x2="512.386" y1="256.386" y2="256.386"><stop offset="0" stop-color="#9dd6fc"/><stop offset="1" stop-color="#d17ff7"/></linearGradient><path d="m166.386 133c0 11.046-8.954 20-20 20h-28c-26.536-1.056-26.516-38.953 0-40h28c11.046 0 20 8.954 20 20zm-20 227h-28c-26.536 1.056-26.516 38.953 0 40h28c26.536-1.056 26.516-38.953 0-40zm76-207h172c26.536-1.056 26.516-38.953 0-40h-172c-26.536 1.056-26.516 38.953 0 40zm23 207h-23c-26.536 1.056-26.516 38.953 0 40h23c26.536-1.056 26.516-38.953 0-40zm-23-87h62c26.536-1.056 26.516-38.953 0-40h-62c-26.536 1.056-26.516 38.953 0 40zm-76-40h-28c-26.536 1.056-26.516 38.953 0 40h28c26.536-1.056 26.516-38.953 0-40zm366 219.073c0 11.046-8.954 20-20 20h-55.529c-3.932 54.287-81.031 54.246-84.942 0h-55.529c-26.536-1.056-26.516-38.953 0-40h9v-84.073c0-42.216 29.268-78.04 68.355-87.536-12.847-16.071-1.143-40.576 19.645-40.463 20.551-.118 32.34 23.929 19.949 40.069 39.933 8.859 70.051 45.106 70.051 87.93v84.073h9c11.046 0 20 8.954 20 20zm-69-104.073c0-27.168-22-50-49-50s-49 22.832-49 50v84.073h98zm49-348h-472c-11.046 0-20 8.954-20 20v472c0 11.046 8.954 20 20 20h210c26.536-1.056 26.516-38.953 0-40h-190v-432h432v203c1.056 26.536 38.953 26.516 40 0v-223c0-11.046-8.954-20-20-20z" fill="url(#SVGID_1_)"/></svg>